<svg width="20" height="20" viewBox="0 0 20 20" fill="none" xmlns="http://www.w3.org/2000/svg">
<g clip-path="url(#clip0_1087_265)">
<path d="M1.67989 0.0273438C1.50021 0.0585938 1.21114 0.164062 1.02364 0.265625C0.769736 0.402344 0.355673 0.839844 0.226767 1.09375C-0.0154209 1.58594 0.000204082 0.988281 0.000204082 10C0.000204082 19.0117 -0.0154209 18.4141 0.226767 18.9062C0.355673 19.1602 0.769736 19.5977 1.02364 19.7344C1.12521 19.7891 1.30099 19.8672 1.41427 19.9102C1.61349 19.9766 1.95724 19.9805 10.0002 19.9805C18.0432 19.9805 18.3869 19.9766 18.5862 19.9102C18.6994 19.8672 18.8752 19.7891 18.9768 19.7344C19.2307 19.5977 19.6448 19.1602 19.7737 18.9062C20.0159 18.4141 20.0002 19.0117 20.0002 10C20.0002 0.988281 20.0159 1.58594 19.7737 1.09375C19.7151 0.976562 19.5549 0.765625 19.4143 0.625C19.1565 0.363281 18.9494 0.226562 18.6096 0.09375C18.426 0.0234375 18.1448 0.0195312 10.0979 0.015625C5.51974 0.0117188 1.73458 0.0195312 1.67989 0.0273438ZM5.53537 1.42188C6.02755 1.67578 6.16427 2.31641 5.81271 2.71875C5.31662 3.28125 4.39865 3.00391 4.34396 2.26953C4.31271 1.8125 4.51583 1.50781 4.96115 1.36328C5.09396 1.32031 5.40255 1.35156 5.53537 1.42188ZM10.2854 1.39062C10.4065 1.43359 10.5197 1.51172 10.6213 1.62891C11.1057 2.17969 10.7307 3.01562 10.0002 3.01562C9.26975 3.01562 8.89475 2.17969 9.37912 1.625C9.62131 1.35156 9.93381 1.26953 10.2854 1.39062ZM15.2268 1.44141C15.5393 1.60156 15.6838 1.88281 15.6565 2.26953C15.6018 3.00391 14.6838 3.28125 14.1877 2.71875C13.8049 2.28516 14.0002 1.58984 14.5588 1.38281C14.7463 1.3125 15.0237 1.33594 15.2268 1.44141ZM9.4924 8.96484V10.3125H7.94943H6.40646V8.96484V7.61719H7.94943H9.4924V8.96484ZM13.594 8.96484V10.3125H12.051H10.508V8.96484V7.61719H12.051H13.594V8.96484ZM17.6565 8.96484V10.3125H16.133H14.6096V8.96484V7.61719H16.133H17.6565V8.96484ZM5.39084 12.5977V13.9453H3.8674H2.34396V12.5977V11.25H3.8674H5.39084V12.5977ZM9.4924 12.5977V13.9453H7.94943H6.40646V12.5977V11.25H7.94943H9.4924V12.5977ZM13.594 12.5977V13.9453H12.051H10.508V12.5977V11.25H12.051H13.594V12.5977ZM17.6565 12.5977V13.9453H16.133H14.6096V12.5977V11.25H16.133H17.6565V12.5977ZM5.39084 16.25V17.6172H3.8674H2.34396V16.25V14.8828H3.8674H5.39084V16.25ZM9.4924 16.25V17.6172L7.96115 17.6094L6.42599 17.5977L6.41427 16.2383L6.40646 14.8828H7.94943H9.4924V16.25Z" fill="#F2C700"/>
</g>
<defs>
<clipPath id="clip0_1087_265">
<rect width="20" height="20" fill="white"/>
</clipPath>
</defs>
</svg>
