<svg width="10" height="10" viewBox="0 0 10 10" fill="none" xmlns="http://www.w3.org/2000/svg">
<g clip-path="url(#clip0_1146_8004)">
<path d="M9.9701 8.46313C9.77988 7.63675 9.37724 6.87186 8.80049 6.24125C8.22374 5.61064 7.49207 5.13529 6.6751 4.86043C7.13438 4.51709 7.4723 4.0411 7.64128 3.49948C7.81027 2.95786 7.80181 2.37789 7.61709 1.84124C7.43237 1.30458 7.0807 0.838273 6.61159 0.50797C6.14249 0.177667 5.57958 7.62939e-06 5.00212 7.62939e-06C4.42467 7.62939e-06 3.86176 0.177667 3.39265 0.50797C2.92355 0.838273 2.57188 1.30458 2.38716 1.84124C2.20244 2.37789 2.19398 2.95786 2.36296 3.49948C2.53195 4.0411 2.86987 4.51709 3.32915 4.86043C2.51218 5.13529 1.78051 5.61064 1.20376 6.24125C0.627007 6.87186 0.224367 7.63675 0.0341526 8.46313C-0.0101395 8.64695 -0.011366 8.83823 0.0305655 9.02259C0.0724969 9.20695 0.156495 9.37958 0.276243 9.52751C0.395991 9.67543 0.548373 9.7948 0.721929 9.87664C0.895486 9.95848 1.0857 10.0007 1.27827 10H8.72598C8.91819 10 9.10791 9.95739 9.28094 9.87528C9.45396 9.79317 9.6058 9.67371 9.72507 9.52587C9.84435 9.37802 9.92797 9.20562 9.96966 9.02157C10.0114 8.83753 10.0101 8.64661 9.96585 8.46313H9.9701Z" fill="#21293E"/>
</g>
<defs>
<clipPath id="clip0_1146_8004">
<rect width="10" height="10" fill="white"/>
</clipPath>
</defs>
</svg>
