<svg width="202" height="51" viewBox="0 0 202 51" fill="none" xmlns="http://www.w3.org/2000/svg">
<rect y="1" width="50" height="50" rx="10" fill="#F2C700"/>
<g clip-path="url(#clip0_1087_9)">
<path fill-rule="evenodd" clip-rule="evenodd" d="M39.4353 22.3962C38.1629 20.4639 36.8334 18.5535 35.4967 16.6432C35.2698 16.3384 34.9856 16.0609 34.6533 15.8198C34.5015 15.7205 34.3052 15.6707 34.1062 15.6809C33.9073 15.6912 33.7214 15.7607 33.5882 15.8747C33.3624 16.0564 33.1744 16.2638 33.0307 16.4895C32.6447 17.1866 32.3159 17.9003 31.9371 18.5974C31.7611 19.1579 31.4376 19.6847 30.9864 20.1455C30.7648 19.882 30.5718 19.6898 30.4288 19.4812C29.0922 17.4501 27.7841 15.3916 26.4403 13.4044C26.0001 12.7828 25.4983 12.1882 24.9392 11.6258C24.634 11.3874 24.2933 11.1773 23.9242 11C23.6025 11.5489 23.3166 11.9716 23.0664 12.4273C21.4746 15.4675 20.2775 18.6209 19.4924 21.8417C19.3635 22.2031 19.2084 22.5586 19.0278 22.9067C18.4606 22.2891 17.9813 21.6266 17.5982 20.9305C16.9549 20.0796 16.4331 19.2342 15.8255 18.3779C15.6611 18.1528 15.2823 18.021 14.8606 17.7685C14.5175 18.8335 14.1458 19.7447 13.9313 20.678C13.5954 22.3248 13.4024 23.9716 13.1022 25.6185C12.6375 28.215 12.1944 30.8115 11.6726 33.3971C11.2508 35.3349 10.6576 37.2397 10.1715 39.1775C10.0276 39.6186 9.9698 40.0737 9.99995 40.5279C9.99995 40.7036 10.3788 40.9177 10.6433 40.989C10.7678 40.9955 10.8925 40.979 11.0069 40.9408C11.1214 40.9026 11.2222 40.8438 11.3009 40.7694C11.6011 40.4456 11.8084 40.0723 12.0729 39.721C12.1658 39.5947 12.3016 39.4849 12.4017 39.3751L13.7097 39.1885C13.9671 39.3916 14.0028 39.7374 14.6104 39.5508C15.0107 38.7877 15.4467 37.9479 15.897 37.1134C16.3473 36.279 16.8548 35.3733 17.3266 34.484C16.9406 34.2589 16.6118 34.0887 16.2473 33.8527C16.6333 32.9085 17.0192 31.9533 17.3266 31.1958L16.2759 29.7905C16.476 29.1482 16.6333 28.6212 16.7905 28.1052C16.3402 27.979 16.0042 28.4071 15.6611 28.1052C15.8398 28.6048 15.8613 28.6926 15.4824 28.8737C15.414 28.9275 15.3343 28.9721 15.2466 29.0055L15.5468 29.6642L15.3323 29.7081C15.3323 29.4941 15.2823 29.28 15.2466 29.0604V29.0165L15.5039 28.9012C15.6046 28.7908 15.6728 28.6648 15.7036 28.5321C15.7345 28.3993 15.7273 28.263 15.6826 28.1327C15.6826 28.1327 15.6826 28.1327 15.6826 28.1052C15.9471 27.3916 16.2258 26.678 16.4903 25.9698C16.4947 25.9434 16.4918 25.9166 16.482 25.8911C16.4721 25.8656 16.4555 25.8419 16.4331 25.8216C16.3974 25.7941 16.3259 25.7941 16.2187 25.7667C16.0227 26.1263 15.8033 26.4781 15.5611 26.8207C15.4324 26.9963 15.268 27.2543 14.7962 27.0787C15.1894 26.1565 15.5897 25.2562 15.9614 24.3339C16.0619 24.1275 16.0962 23.9054 16.0614 23.6866C16.0265 23.4678 15.9236 23.2586 15.7612 23.0769C15.2966 22.5279 15.4467 21.9405 15.9614 21.2653C16.2973 21.7429 16.6047 22.1766 16.9049 22.6102C18.1343 24.4437 19.3566 26.2772 20.6004 28.0997C20.9475 28.7537 21.546 29.3109 22.3159 29.6972L23.817 29.516L24.3959 30.1253C24.5818 30.0814 24.7462 30.0869 24.8177 30.0265C25.7029 29.2177 26.3034 28.2482 26.5618 27.2104C26.619 27.0238 26.3831 26.7877 26.2401 26.4803L24.8606 27.2269C24.8606 27.2269 24.8606 27.2598 24.8606 27.2269C25.0276 26.9552 25.1616 26.6722 25.2609 26.3815C25.4521 25.3846 25.8784 24.4229 26.5189 23.5435C26.6033 23.3246 26.6372 23.0961 26.619 22.8683C26.2867 22.9178 25.9495 22.9454 25.6111 22.9506C25.2971 22.9175 24.9883 22.8605 24.689 22.7804L25.4038 17.9991L24.4031 17.8179C24.4031 17.8179 24.4031 17.8179 24.4031 17.8618C24.432 17.8758 24.4564 17.8946 24.4746 17.9167C24.4746 17.9167 24.4746 17.9826 24.4388 18.0156C24.4388 17.9607 24.4388 17.9113 24.4388 17.8618L24.3959 17.8289C24.9058 17.2673 25.2319 16.6195 25.3466 15.9405L24.4174 15.5618C24.5889 15.0128 24.5389 14.4639 25.1894 13.9149C25.5253 14.4639 25.8255 14.8701 26.0829 15.3202C27.8459 18.531 29.8237 21.6697 32.0085 24.7237C32.2181 25.0419 32.457 25.3483 32.7233 25.6404C32.8131 25.7025 32.9183 25.75 33.0325 25.7801C33.1467 25.8103 33.2676 25.8225 33.3881 25.8161C33.5168 25.8161 33.7383 25.635 33.7526 25.5142C33.8527 24.8225 33.9099 24.1253 33.9599 23.4227C33.9599 23.3568 33.8241 23.2855 33.7526 23.2196C33.4739 23.1208 33.2022 23.5709 32.8663 23.1757C32.9306 22.3742 34.2315 21.6825 33.4596 20.6066L32.1586 21.5288C32.272 21.2176 32.408 20.9116 32.5661 20.6121C33.1876 19.8409 33.5647 18.9685 33.6669 18.065C33.6581 17.9872 33.6698 17.9089 33.7012 17.8346C33.7327 17.7604 33.7833 17.6918 33.85 17.6329C33.9167 17.574 33.9981 17.526 34.0894 17.4918C34.1808 17.4576 34.2802 17.4378 34.3817 17.4337C34.6104 17.7027 34.8892 17.9826 35.0965 18.279C35.897 19.4373 36.6547 20.6121 37.4696 21.7649C38.0057 22.5114 38.599 23.236 39.1994 23.9607C39.3066 24.0869 39.5854 24.1253 39.8784 24.2351C40.0426 23.6012 39.884 22.943 39.4353 22.3962ZM20.8506 25.5087C20.1358 25.086 20.5289 24.7786 20.7719 24.4108C21.5296 24.7566 21.3295 25.086 20.8649 25.5087H20.8506ZM22.1515 26.6889C22.0442 26.7961 21.9193 26.892 21.7798 26.9744C21.6654 26.8756 21.5368 26.8097 21.5225 26.7383C21.4867 26.5462 21.8084 26.3651 22.0085 26.4584C22.0729 26.4968 22.1515 26.645 22.1515 26.6889ZM22.8663 28.6542C22.5947 28.1052 22.6447 27.8527 23.481 27.4739L22.8663 28.6542Z" fill="white"/>
<path fill-rule="evenodd" clip-rule="evenodd" d="M15.4899 39.183C15.4565 39.3963 15.4565 39.6119 15.4899 39.8253C16.4335 39.6386 16.5193 39.0238 16.7837 38.5572C18.3062 35.8838 18.585 35.1153 18.3634 34.4565C17.2108 35.9578 16.2486 37.5405 15.4899 39.183Z" fill="white"/>
</g>
<path d="M67.79 39.166C66.7007 38.4567 65.966 37.836 65.586 37.304C65.206 36.7973 65.358 36.3287 66.042 35.898C66.194 35.7967 66.4347 35.8853 66.764 36.164C67.1187 36.4173 67.41 36.658 67.638 36.886C68.1447 37.342 68.7653 37.6207 69.5 37.722C70.26 37.8487 71.1087 37.7853 72.046 37.532C73.11 37.2027 74.0347 36.7467 74.82 36.164C75.6307 35.556 76.3907 34.8213 77.1 33.96C77.632 33.276 77.9993 32.5413 78.202 31.756C78.4047 30.9453 78.4807 30.198 78.43 29.514C78.4047 28.83 78.2653 28.3487 78.012 28.07C77.3787 27.1833 76.492 26.5753 75.352 26.246C74.2373 25.8913 72.92 25.9167 71.4 26.322C71.2227 26.3473 70.9567 26.398 70.602 26.474C70.2473 26.55 69.9307 26.626 69.652 26.702C69.3733 26.7527 69.2213 26.778 69.196 26.778C69.0187 26.8287 68.8793 26.892 68.778 26.968C68.6767 27.0187 68.55 27.2087 68.398 27.538C68.2713 27.842 68.0687 28.3993 67.79 29.21C67.5113 29.9953 67.0933 31.1607 66.536 32.706C66.004 34.2513 65.5733 35.3533 65.244 36.012C64.94 36.6453 64.6613 36.9367 64.408 36.886C64.18 36.81 63.8887 36.5313 63.534 36.05C63.3313 35.6953 63.2047 35.3533 63.154 35.024C63.1033 34.6693 63.2047 34.264 63.458 33.808C63.5847 33.58 63.686 33.3773 63.762 33.2C63.838 32.9973 63.9393 32.6553 64.066 32.174C64.1927 31.794 64.4333 31.1353 64.788 30.198C65.168 29.2353 65.6113 28.1207 66.118 26.854C66.6247 25.562 67.1567 24.232 67.714 22.864C68.2713 21.496 68.8033 20.204 69.31 18.988C69.842 17.772 70.2853 16.746 70.64 15.91C70.9947 15.1247 71.21 14.5547 71.286 14.2C71.362 13.8453 71.3367 13.6553 71.21 13.63C71.21 13.5033 71.172 13.3893 71.096 13.288C71.02 13.1613 70.9947 13.0473 71.02 12.946C71.02 12.8447 71.1847 12.7053 71.514 12.528C71.8687 12.3507 72.2487 12.186 72.654 12.034C73.0847 11.882 73.414 11.8313 73.642 11.882C73.7687 11.882 73.9207 11.882 74.098 11.882C74.2753 11.8567 74.364 11.7933 74.364 11.692C74.44 11.692 74.6807 11.6667 75.086 11.616C75.4913 11.5653 75.9347 11.5653 76.416 11.616C78.1133 11.768 79.4307 12.262 80.368 13.098C81.3053 13.9087 81.7613 15.0233 81.736 16.442C81.7107 16.8727 81.4827 17.4553 81.052 18.19C80.6467 18.9247 80.14 19.6593 79.532 20.394C78.9493 21.1287 78.3793 21.7493 77.822 22.256C77.4927 22.5347 77.138 22.826 76.758 23.13C76.4033 23.4087 76.0867 23.6493 75.808 23.852C75.5547 24.0293 75.428 24.118 75.428 24.118C75.428 24.118 75.5293 24.156 75.732 24.232C75.9347 24.308 76.15 24.384 76.378 24.46C77.5433 24.8907 78.506 25.4353 79.266 26.094C80.026 26.7527 80.5453 27.6647 80.824 28.83C80.9253 29.21 80.9253 29.6787 80.824 30.236C80.748 30.7933 80.634 31.3507 80.482 31.908C80.33 32.44 80.1653 32.896 79.988 33.276C79.8107 33.4533 79.6713 33.6433 79.57 33.846C79.4687 34.0233 79.418 34.112 79.418 34.112C79.418 34.1627 79.3167 34.3653 79.114 34.72C78.9113 35.0493 78.6707 35.4167 78.392 35.822C78.1133 36.2273 77.8473 36.582 77.594 36.886C77.3407 37.0887 77.0367 37.3293 76.682 37.608C76.3527 37.8867 75.9727 38.1527 75.542 38.406C75.1367 38.6593 74.6933 38.8747 74.212 39.052C73.5027 39.356 72.73 39.5587 71.894 39.66C71.0833 39.7867 70.3107 39.7993 69.576 39.698C68.8413 39.622 68.246 39.4447 67.79 39.166ZM69.652 24.536C69.652 24.536 69.88 24.498 70.336 24.422C70.8173 24.3207 71.3367 24.2193 71.894 24.118C72.4513 23.9913 72.8567 23.8773 73.11 23.776C73.2367 23.7 73.414 23.5987 73.642 23.472C73.8953 23.3453 74.1487 23.1553 74.402 22.902C74.7567 22.5727 75.2 22.104 75.732 21.496C76.2893 20.8627 76.834 20.204 77.366 19.52C77.898 18.8107 78.3033 18.1773 78.582 17.62C79.1647 16.708 79.4813 16.0367 79.532 15.606C79.5827 15.15 79.4433 14.7573 79.114 14.428C78.886 14.1493 78.4933 13.972 77.936 13.896C77.404 13.7947 76.834 13.7693 76.226 13.82C75.618 13.8453 75.0987 13.9213 74.668 14.048C74.3387 14.1493 74.0853 14.276 73.908 14.428C73.7307 14.5547 73.642 14.7573 73.642 15.036C73.642 15.264 73.566 15.492 73.414 15.72C73.2873 15.9227 73.1607 16.0873 73.034 16.214C73.0087 16.3913 72.9453 16.556 72.844 16.708C72.7427 16.8347 72.692 16.898 72.692 16.898C72.692 16.9993 72.5147 17.4173 72.16 18.152C71.8053 18.8867 71.4507 19.7353 71.096 20.698C70.64 21.7873 70.2853 22.674 70.032 23.358C69.7787 24.0167 69.652 24.4093 69.652 24.536ZM86.6095 36.43C86.2802 36.43 86.0142 36.3667 85.8115 36.24C85.6342 36.1133 85.4062 35.936 85.1275 35.708C84.6462 35.2013 84.3042 34.72 84.1015 34.264C83.8988 33.7827 83.8355 33.3267 83.9115 32.896C83.9875 32.6933 84.0128 32.5033 83.9875 32.326C83.9875 32.1233 83.9875 32.022 83.9875 32.022C83.8608 31.8953 83.8228 31.8193 83.8735 31.794C83.9242 31.7433 83.9748 31.6673 84.0255 31.566C84.1775 31.566 84.2282 31.4267 84.1775 31.148C84.1268 30.9453 84.2282 30.502 84.4815 29.818C84.7348 29.134 85.0515 28.488 85.4315 27.88C85.5835 27.6267 85.8115 27.2973 86.1155 26.892C86.4195 26.4613 86.7488 26.0433 87.1035 25.638C87.4835 25.2073 87.8255 24.8653 88.1295 24.612C88.7628 24.08 89.3202 23.6873 89.8015 23.434C90.2828 23.1807 90.8022 22.9907 91.3595 22.864C91.9168 22.7373 92.2968 22.674 92.4995 22.674C92.7275 22.674 93.0315 22.8767 93.4115 23.282C93.9942 23.5353 94.4122 23.8393 94.6655 24.194C94.9442 24.5487 95.1215 25.068 95.1975 25.752C95.2735 26.512 95.2102 27.386 95.0075 28.374C94.8302 29.3367 94.2348 30.54 93.2215 31.984C92.5882 32.896 92.0055 33.58 91.4735 34.036C90.9415 34.4667 90.3082 34.8973 89.5735 35.328C89.0415 35.6827 88.5602 35.9487 88.1295 36.126C87.6988 36.278 87.1922 36.3793 86.6095 36.43ZM90.2575 32.402C90.8655 31.718 91.3468 31.072 91.7015 30.464C92.0815 29.856 92.4362 29.0833 92.7655 28.146C92.8668 27.8673 92.9302 27.5253 92.9555 27.12C92.9808 26.6893 92.9682 26.2967 92.9175 25.942C92.8922 25.562 92.8035 25.3467 92.6515 25.296C92.3475 25.1187 91.9802 25.068 91.5495 25.144C91.1188 25.1947 90.6502 25.4353 90.1435 25.866C89.3582 26.5247 88.6742 27.348 88.0915 28.336C87.5088 29.2987 86.9388 30.4007 86.3815 31.642C86.0015 32.554 85.9128 33.2887 86.1155 33.846C86.3435 34.378 86.8122 34.568 87.5215 34.416C88.2562 34.2387 89.1682 33.5673 90.2575 32.402ZM95.0078 36.848C94.9065 36.7973 94.7671 36.696 94.5898 36.544C94.4378 36.392 94.2985 36.24 94.1718 36.088C94.0958 36.012 94.0325 35.9487 93.9818 35.898C93.9311 35.822 93.8805 35.7713 93.8298 35.746C93.8298 35.5687 93.8678 35.442 93.9438 35.366C94.0451 35.29 94.1465 35.2013 94.2478 35.1C94.3491 34.948 94.5138 34.872 94.7418 34.872C94.9698 34.872 95.1471 34.8087 95.2738 34.682C95.7298 34.3527 96.1985 34.0107 96.6798 33.656C97.1611 33.3013 97.5665 32.8833 97.8958 32.402C98.2505 31.8953 98.6051 31.3507 98.9598 30.768C99.3145 30.1853 99.6565 29.6153 99.9858 29.058C100.087 28.8807 100.252 28.564 100.48 28.108C100.708 27.652 100.923 27.2087 101.126 26.778C101.354 26.322 101.48 26.0053 101.506 25.828C101.278 25.752 101.062 25.6887 100.86 25.638C100.682 25.562 100.505 25.4987 100.328 25.448C100.1 25.0933 99.9731 24.8907 99.9478 24.84C99.9225 24.764 99.9098 24.5233 99.9098 24.118C99.9098 23.814 100.074 23.624 100.404 23.548C101.138 23.3707 101.784 23.2567 102.342 23.206C102.924 23.1553 103.494 23.054 104.052 22.902C104.406 22.8007 104.837 22.7627 105.344 22.788C105.85 22.8133 106.357 22.9273 106.864 23.13C107.092 23.2313 107.282 23.358 107.434 23.51C107.586 23.662 107.725 23.8393 107.852 24.042C108.181 24.498 108.346 24.8907 108.346 25.22C108.371 25.5493 108.358 25.866 108.308 26.17C108.257 26.474 108.295 26.816 108.422 27.196C108.244 27.88 108.067 28.488 107.89 29.02C107.712 29.5267 107.548 30.008 107.396 30.464C107.244 30.8947 107.104 31.3 106.978 31.68C106.851 32.06 106.75 32.44 106.674 32.82C106.572 33.2253 106.446 33.6307 106.294 34.036C106.142 34.4413 106.028 34.8593 105.952 35.29C105.901 35.6193 105.749 35.86 105.496 36.012C105.268 36.164 105.014 36.3033 104.736 36.43C104.634 36.4553 104.457 36.43 104.204 36.354C103.976 36.2527 103.76 36.1133 103.558 35.936C103.482 35.6573 103.456 35.404 103.482 35.176C103.507 34.948 103.558 34.72 103.634 34.492C103.71 34.2893 103.849 33.8333 104.052 33.124C104.254 32.4147 104.482 31.6167 104.736 30.73C104.989 29.8433 105.23 29.02 105.458 28.26C105.686 27.5 105.838 26.968 105.914 26.664C106.04 26.2587 106.078 25.9547 106.028 25.752C106.002 25.5493 105.964 25.3593 105.914 25.182C105.382 24.9793 105.014 24.916 104.812 24.992C104.634 25.0427 104.406 25.0933 104.128 25.144C104.001 25.2453 103.9 25.3593 103.824 25.486C103.748 25.6127 103.697 25.7393 103.672 25.866C103.393 26.6007 103.152 27.1833 102.95 27.614C102.772 28.0447 102.595 28.4373 102.418 28.792C102.24 29.1213 102.038 29.4887 101.81 29.894C101.607 30.2993 101.341 30.8567 101.012 31.566C100.809 32.022 100.556 32.44 100.252 32.82C99.9731 33.2 99.7198 33.6053 99.4918 34.036L99.0738 34.568C99.0991 34.568 98.9978 34.6693 98.7698 34.872C98.5418 35.0747 98.3138 35.2773 98.0858 35.48C97.8831 35.6827 97.7818 35.784 97.7818 35.784L96.6038 36.696C96.4771 36.7973 96.2618 36.848 95.9578 36.848C95.6538 36.848 95.3371 36.848 95.0078 36.848ZM119.347 36.582C119.195 36.5313 119.043 36.4933 118.891 36.468C118.739 36.4173 118.587 36.3667 118.435 36.316C118.309 36.2653 118.157 36.2273 117.979 36.202C117.726 35.8473 117.625 35.4167 117.675 34.91C117.726 34.378 117.84 33.8333 118.017 33.276C118.22 32.7187 118.41 32.174 118.587 31.642C118.79 31.11 118.904 30.654 118.929 30.274C118.904 30.1727 118.866 30.1473 118.815 30.198C118.765 30.2233 118.739 30.2613 118.739 30.312C118.562 30.5147 118.309 30.654 117.979 30.73C117.65 30.806 117.346 30.8693 117.067 30.92C116.586 30.996 116.105 31.0847 115.623 31.186C115.142 31.2873 114.673 31.4013 114.217 31.528C114.141 31.4773 114.053 31.414 113.951 31.338C113.875 31.262 113.799 31.1987 113.723 31.148C113.546 31.148 113.394 31.3127 113.267 31.642C113.141 31.9713 113.027 32.3767 112.925 32.858C112.824 33.314 112.723 33.7573 112.621 34.188C112.545 34.5933 112.469 34.8847 112.393 35.062C111.988 35.1127 111.697 35.1253 111.519 35.1C111.367 35.0747 111.076 34.9987 110.645 34.872C110.443 34.5933 110.329 34.3273 110.303 34.074C110.303 33.8207 110.341 33.542 110.417 33.238C110.544 32.6553 110.645 32.1867 110.721 31.832C110.823 31.4773 110.987 31.0213 111.215 30.464C111.342 30.1853 111.456 29.9193 111.557 29.666C111.684 29.3873 111.747 29.0833 111.747 28.754C111.95 28.5007 112.089 28.222 112.165 27.918C112.241 27.614 112.33 27.31 112.431 27.006C112.837 25.9673 113.153 25.1693 113.381 24.612C113.635 24.0293 113.812 23.5733 113.913 23.244C114.015 22.9147 114.078 22.6107 114.103 22.332C114.129 21.9773 114.344 21.8 114.749 21.8C115.003 21.8 115.269 21.9013 115.547 22.104C115.826 22.2813 116.041 22.5093 116.193 22.788C116.345 23.0667 116.358 23.358 116.231 23.662C116.155 23.8647 116.029 24.194 115.851 24.65C115.699 25.0807 115.522 25.562 115.319 26.094C115.142 26.6007 114.965 27.082 114.787 27.538C114.635 27.9687 114.509 28.2853 114.407 28.488C114.382 28.5893 114.331 28.678 114.255 28.754C114.179 28.8047 114.141 28.8933 114.141 29.02C114.319 29.1467 114.61 29.1973 115.015 29.172C115.446 29.1213 115.75 29.0453 115.927 28.944C116.307 28.944 116.675 28.944 117.029 28.944C117.409 28.944 117.789 28.944 118.169 28.944C118.549 29.172 118.841 29.514 119.043 29.97C119.221 29.4887 119.461 28.8553 119.765 28.07C120.069 27.2593 120.361 26.4613 120.639 25.676C120.918 24.8907 121.083 24.2953 121.133 23.89C121.184 23.662 121.285 23.4593 121.437 23.282C121.589 23.1047 121.754 22.9653 121.931 22.864C122.286 23.0413 122.628 23.1933 122.957 23.32C123.312 23.4213 123.54 23.7127 123.641 24.194C123.616 24.422 123.565 24.65 123.489 24.878C123.413 25.0807 123.337 25.2833 123.261 25.486C123.008 26.2207 122.691 27.0313 122.311 27.918C121.931 28.7793 121.577 29.666 121.247 30.578C120.943 31.4647 120.728 32.3007 120.601 33.086C120.601 33.162 120.538 33.4153 120.411 33.846C120.31 34.2767 120.196 34.6947 120.069 35.1C119.968 35.5053 119.905 35.7207 119.879 35.746C119.879 35.9233 119.829 36.088 119.727 36.24C119.626 36.3667 119.499 36.4807 119.347 36.582ZM128.557 35.898C128.355 35.9487 128.089 35.974 127.759 35.974C127.43 35.9487 127.139 35.9107 126.885 35.86C126.657 35.784 126.543 35.708 126.543 35.632C126.543 35.5053 126.48 35.442 126.353 35.442C126.353 35.442 126.29 35.3913 126.163 35.29C126.062 35.1887 125.897 35.0873 125.669 34.986C125.441 34.6313 125.327 34.2513 125.327 33.846C125.327 33.4153 125.441 32.744 125.669 31.832C125.745 31.1987 125.986 30.464 126.391 29.628C126.822 28.7667 127.341 27.8927 127.949 27.006C128.557 26.1193 129.191 25.3213 129.849 24.612C130.533 23.9027 131.154 23.3833 131.711 23.054C132.066 22.6993 132.497 22.5093 133.003 22.484C133.51 22.4587 133.991 22.5727 134.447 22.826C134.701 22.9527 134.954 23.1553 135.207 23.434C135.461 23.7127 135.701 24.0167 135.929 24.346C136.157 24.6753 136.347 25.0047 136.499 25.334C136.575 25.6127 136.613 25.866 136.613 26.094C136.639 26.2967 136.639 26.55 136.613 26.854C136.613 27.158 136.575 27.614 136.499 28.222C136.373 28.678 136.259 29.2353 136.157 29.894C136.081 30.5527 136.043 31.1227 136.043 31.604C135.993 32.0853 136.043 32.4273 136.195 32.63C136.373 32.8327 136.626 32.8453 136.955 32.668C137.259 32.516 137.551 32.4527 137.829 32.478C138.108 32.478 138.323 32.554 138.475 32.706C138.653 32.858 138.741 33.086 138.741 33.39C138.741 33.694 138.589 34.0107 138.285 34.34C138.007 34.644 137.652 34.91 137.221 35.138C136.816 35.3407 136.423 35.442 136.043 35.442C135.765 35.442 135.499 35.2773 135.245 34.948C134.992 34.5933 134.764 34.1753 134.561 33.694C134.384 33.1873 134.219 32.706 134.067 32.25L133.839 31.376L132.205 32.934C131.876 33.2887 131.547 33.618 131.217 33.922C130.913 34.2007 130.723 34.4033 130.647 34.53C130.521 34.758 130.28 34.986 129.925 35.214C129.596 35.442 129.14 35.67 128.557 35.898ZM128.671 33.656C129.102 33.4027 129.596 33.0353 130.153 32.554C130.711 32.0473 131.255 31.5027 131.787 30.92C132.319 30.312 132.763 29.7547 133.117 29.248C133.548 28.6653 133.877 28.1207 134.105 27.614C134.333 27.1073 134.498 26.626 134.599 26.17C134.498 25.8913 134.333 25.6 134.105 25.296C133.877 24.9667 133.675 24.7893 133.497 24.764C132.94 24.764 132.345 25.1187 131.711 25.828C131.103 26.512 130.508 27.2593 129.925 28.07C129.824 28.1967 129.685 28.3993 129.507 28.678C129.33 28.9567 129.153 29.2227 128.975 29.476C128.823 29.704 128.722 29.856 128.671 29.932C128.595 30.0333 128.443 30.3247 128.215 30.806C128.013 31.262 127.81 31.7307 127.607 32.212C127.405 32.668 127.303 32.972 127.303 33.124C127.303 33.276 127.316 33.4407 127.341 33.618C127.392 33.7953 127.519 33.9093 127.721 33.96C127.924 34.0107 128.241 33.9093 128.671 33.656Z" fill="white"/>
<path d="M142.593 35.024C142.112 35.2013 141.707 35.29 141.377 35.29C141.073 35.2647 140.731 35.1127 140.351 34.834C139.87 34.378 139.705 33.922 139.857 33.466C140.035 32.9847 140.453 32.516 141.111 32.06C141.567 31.7813 141.897 31.6293 142.099 31.604C142.327 31.5787 142.669 31.6673 143.125 31.87C143.885 32.3513 144.215 32.8833 144.113 33.466C144.037 34.0487 143.531 34.568 142.593 35.024ZM147.961 37.684C147.505 37.304 147.353 36.8353 147.505 36.278C147.53 36.1767 147.581 35.7967 147.657 35.138C147.758 34.454 147.885 33.6687 148.037 32.782C148.189 31.87 148.353 30.996 148.531 30.16C148.733 29.324 148.923 28.6907 149.101 28.26C149.278 27.3733 149.506 26.512 149.785 25.676C150.089 24.84 150.367 24.0167 150.621 23.206C150.671 22.978 150.798 22.5853 151.001 22.028C151.229 21.4707 151.469 20.8753 151.723 20.242C151.976 19.5833 152.191 19.0007 152.369 18.494C152.571 17.9873 152.685 17.6707 152.711 17.544C152.736 17.4427 152.837 17.1767 153.015 16.746C153.217 16.3153 153.458 15.834 153.737 15.302C154.015 14.7447 154.281 14.2253 154.535 13.744C154.788 13.2627 154.978 12.908 155.105 12.68C155.383 12.1733 155.662 11.7173 155.941 11.312C156.219 10.9067 156.46 10.6153 156.663 10.438C156.941 10.438 157.157 10.4887 157.309 10.59C157.461 10.666 157.613 10.78 157.765 10.932C157.917 11.084 158.119 11.2867 158.373 11.54C158.423 11.692 158.309 12.034 158.031 12.566C157.752 13.098 157.41 13.7187 157.005 14.428C156.625 15.112 156.245 15.7707 155.865 16.404C155.51 17.0373 155.269 17.5313 155.143 17.886C155.041 18.1393 154.851 18.5827 154.573 19.216C154.294 19.8493 154.015 20.508 153.737 21.192C153.483 21.876 153.293 22.4333 153.167 22.864C153.496 23.092 153.876 23.1553 154.307 23.054C154.763 22.9273 155.219 22.7753 155.675 22.598C156.131 22.3953 156.536 22.294 156.891 22.294C157.777 22.1167 158.423 22.066 158.829 22.142C159.234 22.218 159.639 22.4587 160.045 22.864C160.374 22.864 160.615 22.6993 160.767 22.37C160.944 22.0407 161.109 21.6353 161.261 21.154C161.438 20.6727 161.666 20.242 161.945 19.862C162.021 19.7607 162.173 19.4947 162.401 19.064C162.654 18.6333 162.945 18.1267 163.275 17.544C163.629 16.9613 163.997 16.366 164.376 15.758C164.757 15.15 165.137 14.618 165.517 14.162C166.327 13.098 167.48 12.262 168.975 11.654C169.405 11.4007 169.836 11.35 170.267 11.502C170.723 11.6287 171.001 12.0213 171.103 12.68C171.685 12.8573 172.141 12.9967 172.471 13.098C172.825 13.1993 173.155 13.3893 173.459 13.668C173.839 13.82 174.155 14.1367 174.409 14.618C174.687 15.074 174.89 15.5427 175.017 16.024C175.143 16.48 175.156 16.784 175.055 16.936C175.08 16.9107 175.067 17.1513 175.017 17.658C174.966 18.1647 174.89 18.76 174.789 19.444C174.687 20.1027 174.573 20.66 174.447 21.116C174.345 21.8253 174.13 22.636 173.801 23.548C173.471 24.4347 173.129 25.2833 172.775 26.094C172.42 26.9047 172.141 27.5507 171.939 28.032C171.711 28.4373 171.369 28.9947 170.913 29.704C170.457 30.4133 169.963 31.1227 169.431 31.832C168.924 32.516 168.43 33.0607 167.949 33.466C167.163 34.1247 166.365 34.72 165.555 35.252C164.744 35.784 163.959 36.05 163.199 36.05C162.565 36.05 162.033 35.9487 161.603 35.746C161.172 35.5433 160.754 35.3027 160.349 35.024C159.893 34.6693 159.513 34.2133 159.209 33.656C158.93 33.0987 158.74 32.554 158.639 32.022C158.563 31.4647 158.588 31.072 158.715 30.844C158.639 30.6413 158.639 30.2487 158.715 29.666C158.816 29.058 158.943 28.4247 159.095 27.766C159.247 27.1073 159.348 26.5753 159.399 26.17C159.551 25.8913 159.69 25.524 159.817 25.068C159.969 24.612 160.007 24.3207 159.931 24.194C159.627 23.9407 159.158 23.8647 158.525 23.966C157.891 24.042 157.169 24.232 156.359 24.536C155.472 24.84 154.674 25.1313 153.965 25.41C153.281 25.6887 152.647 25.8407 152.065 25.866C151.862 26.094 151.723 26.398 151.647 26.778C151.571 27.1327 151.507 27.424 151.457 27.652C151.457 27.7027 151.406 27.9307 151.305 28.336C151.203 28.716 151.077 29.1847 150.925 29.742C150.798 30.274 150.671 30.8187 150.545 31.376C150.418 31.908 150.317 32.3513 150.241 32.706C150.165 33.0353 150.139 33.1873 150.165 33.162C150.165 33.4913 150.114 33.884 150.013 34.34C149.911 34.7707 149.873 35.1633 149.898 35.518C149.924 35.8473 149.886 36.1767 149.785 36.506C149.683 36.81 149.645 37.1267 149.671 37.456C149.671 37.836 149.468 38.026 149.062 38.026C148.657 38.026 148.29 37.912 147.961 37.684ZM162.173 34.074C162.755 34.074 163.325 33.96 163.883 33.732C164.44 33.504 164.858 33.2507 165.137 32.972C165.745 32.3387 166.251 31.8193 166.656 31.414C167.087 31.0087 167.467 30.6287 167.797 30.274C168.126 29.894 168.455 29.4633 168.785 28.982C169.139 28.4753 169.532 27.8167 169.963 27.006C170.393 26.2713 170.71 25.676 170.913 25.22C171.141 24.7387 171.305 24.308 171.407 23.928C171.533 23.548 171.66 23.13 171.787 22.674C171.913 22.1927 172.103 21.5847 172.357 20.85C172.686 19.9633 172.863 19.102 172.889 18.266C172.939 17.4047 172.965 16.6573 172.965 16.024C173.015 15.644 172.914 15.3147 172.661 15.036C172.407 14.7573 172.129 14.6433 171.825 14.694C171.546 14.7447 171.242 14.7953 170.913 14.846C170.609 14.8967 170.343 15.0613 170.115 15.34C169.988 15.492 169.849 15.606 169.697 15.682C169.57 15.758 169.443 15.8087 169.317 15.834C169.063 15.7833 168.899 15.7327 168.823 15.682C168.772 15.6313 168.595 15.3907 168.291 14.96C167.936 15.2133 167.67 15.416 167.493 15.568C167.315 15.72 167.151 15.8973 166.999 16.1C166.847 16.3027 166.631 16.594 166.353 16.974C165.897 17.582 165.491 18.2153 165.137 18.874C164.807 19.5327 164.465 20.1913 164.111 20.85C163.553 21.8633 163.059 22.94 162.629 24.08C162.198 25.22 161.818 26.4233 161.489 27.69C161.058 29.4127 160.881 30.806 160.957 31.87C161.058 32.934 161.463 33.6687 162.173 34.074ZM175.578 36.924C175.502 36.8227 175.426 36.7467 175.35 36.696C175.274 36.62 175.185 36.544 175.084 36.468C175.008 36.3667 174.881 36.24 174.704 36.088C174.679 35.784 174.717 35.366 174.818 34.834C174.945 34.302 175.084 33.77 175.236 33.238C175.388 32.706 175.515 32.3133 175.616 32.06C175.616 32.06 175.679 31.8447 175.806 31.414C175.958 30.9833 176.135 30.464 176.338 29.856C176.541 29.2227 176.743 28.602 176.946 27.994C177.174 27.3607 177.351 26.8413 177.478 26.436C177.63 26.0053 177.706 25.79 177.706 25.79C177.757 25.6887 177.782 25.5873 177.782 25.486C177.782 25.3593 177.782 25.2073 177.782 25.03C177.706 24.574 177.744 24.232 177.896 24.004C178.073 23.776 178.213 23.5353 178.314 23.282C178.593 23.3073 178.783 23.3073 178.884 23.282C179.011 23.2567 179.15 23.282 179.302 23.358C179.479 23.3833 179.821 23.358 180.328 23.282C180.835 23.206 181.341 23.1047 181.848 22.978C182.38 22.8513 182.735 22.75 182.912 22.674C183.267 22.674 183.609 22.6613 183.938 22.636C184.293 22.6107 184.635 22.6233 184.964 22.674C185.395 22.674 185.775 22.826 186.104 23.13C186.433 23.434 186.661 23.6747 186.788 23.852C186.737 23.9533 186.674 24.0547 186.598 24.156C186.547 24.232 186.497 24.308 186.446 24.384C186.395 24.46 186.332 24.536 186.256 24.612C186.104 24.612 185.787 24.612 185.306 24.612C184.825 24.612 184.305 24.6373 183.748 24.688C183.216 24.7387 182.773 24.8273 182.418 24.954C182.089 25.0553 181.734 25.1187 181.354 25.144C180.999 25.144 180.67 25.2073 180.366 25.334C180.239 25.4607 180.113 25.714 179.986 26.094C179.859 26.474 179.745 26.8667 179.644 27.272C179.543 27.6773 179.454 27.9813 179.378 28.184C179.378 28.1587 179.302 28.336 179.15 28.716C179.023 29.096 178.871 29.5267 178.694 30.008C178.542 30.4893 178.415 30.882 178.314 31.186C178.213 31.338 178.086 31.6293 177.934 32.06C177.782 32.4907 177.643 32.9213 177.516 33.352C177.389 33.7827 177.301 34.0993 177.25 34.302C177.149 34.758 177.022 35.214 176.87 35.67C176.718 36.1007 176.528 36.5313 176.3 36.962C176.199 36.962 176.085 36.962 175.958 36.962C175.831 36.9367 175.705 36.924 175.578 36.924ZM186.304 35.632C186.203 35.4293 186.076 35.2773 185.924 35.176C185.772 35.0493 185.696 34.9353 185.696 34.834C185.696 34.7327 185.684 34.6313 185.658 34.53C185.658 34.4033 185.608 34.2893 185.506 34.188C185.38 34.036 185.392 33.694 185.544 33.162C185.696 32.6047 185.95 31.9333 186.304 31.148C186.659 30.3373 187.077 29.4887 187.558 28.602C187.761 28.3993 187.964 28.1333 188.166 27.804C188.369 27.4747 188.521 27.2593 188.622 27.158C188.622 27.0567 188.66 26.968 188.736 26.892C188.812 26.7907 188.901 26.74 189.002 26.74V26.512C189.002 26.3853 189.116 26.17 189.344 25.866C189.598 25.562 189.902 25.2327 190.256 24.878C190.611 24.498 190.978 24.1433 191.358 23.814C191.738 23.4593 192.055 23.206 192.308 23.054C192.84 22.6993 193.385 22.484 193.942 22.408C194.525 22.332 195.019 22.4587 195.424 22.788C195.5 22.864 195.627 22.9907 195.804 23.168C195.982 23.3453 196.184 23.548 196.412 23.776C196.666 23.9787 196.919 24.194 197.172 24.422L198.578 25.676L197.894 27.576C197.565 28.5893 197.476 29.476 197.628 30.236C197.806 30.996 198.059 31.6547 198.388 32.212C198.515 32.4907 198.768 32.7567 199.148 33.01C199.554 33.2633 199.934 33.4153 200.288 33.466C200.491 33.4913 200.681 33.5673 200.858 33.694C201.036 33.8207 201.124 34.0233 201.124 34.302C201.124 34.5553 201.074 34.758 200.972 34.91C200.871 35.062 200.694 35.1633 200.44 35.214C199.604 35.3153 198.819 35.1127 198.084 34.606C197.375 34.0993 196.716 33.2633 196.108 32.098C196.007 31.946 195.868 31.6673 195.69 31.262C195.538 30.8313 195.45 30.5527 195.424 30.426C195.323 30.5527 195.133 30.7933 194.854 31.148C194.576 31.4773 194.36 31.718 194.208 31.87C192.41 33.694 190.852 34.9227 189.534 35.556C188.242 36.164 187.166 36.1893 186.304 35.632ZM187.672 33.504C187.672 33.6813 187.938 33.6813 188.47 33.504C189.028 33.3013 189.623 32.9467 190.256 32.44C191.118 31.7053 191.979 30.8947 192.84 30.008C193.727 29.1213 194.436 28.298 194.968 27.538L195.804 26.17C195.551 25.5873 195.272 25.1947 194.968 24.992C194.69 24.764 194.449 24.65 194.246 24.65C193.917 24.65 193.423 24.954 192.764 25.562C192.131 26.17 191.447 26.9807 190.712 27.994C189.978 29.0073 189.281 30.122 188.622 31.338C188.369 31.8447 188.141 32.3387 187.938 32.82C187.761 33.276 187.672 33.504 187.672 33.504Z" fill="#F2C700"/>
<defs>
<clipPath id="clip0_1087_9">
<rect width="30" height="30" fill="white" transform="translate(10 11)"/>
</clipPath>
</defs>
</svg>
