<svg width="20" height="20" viewBox="0 0 20 20" fill="none" xmlns="http://www.w3.org/2000/svg">
<path d="M2.25076 0.0642014C1.40528 0.285 0.644338 0.919205 0.273263 1.70374C-0.0179603 2.32385 -0.00856596 2.02319 0.0055255 8.09748L0.0186867 13.2706C0.0193021 13.5124 0.0625482 13.7523 0.14644 13.9792C0.414178 14.7167 0.963745 15.3368 1.65423 15.6751C2.22258 15.9522 2.57957 16.0086 3.77734 16.0086C4.85768 16.0086 5.00799 16.0321 5.25225 16.2576C5.31331 16.314 5.92864 16.9858 6.61912 17.7515C7.3096 18.5126 7.9766 19.2266 8.10342 19.3347C8.9536 20.0628 10.2829 20.2085 11.3398 19.6964C11.5182 19.6071 11.7719 19.4474 11.8987 19.3347C12.0255 19.2266 12.6925 18.5126 13.383 17.7515C14.0735 16.9858 14.6888 16.314 14.7499 16.2576C14.9941 16.0321 15.1445 16.0086 16.2248 16.0086C17.4132 16.0086 17.7749 15.9522 18.3385 15.6798C19.1464 15.2898 19.7899 14.4583 19.959 13.5892C19.9966 13.3872 20.006 11.7853 19.9966 7.81091L19.9834 2.65207C19.9828 2.42891 19.9411 2.20776 19.8604 1.9997C19.5128 1.10242 18.8928 0.482307 17.9956 0.134668C17.7876 0.053936 17.5665 0.0123844 17.3433 0.0121078L10.095 0.00312996C3.59415 -0.00626564 2.47153 0.00312996 2.25076 0.0642014ZM10.3768 5.18953C10.5647 5.80494 10.7714 6.47203 10.8325 6.66934L10.9452 7.03577L12.4671 7.04517L13.9936 7.05926L12.7724 7.98943C12.1007 8.50619 11.5511 8.94309 11.5511 8.96188C11.5511 8.98537 11.7531 9.65246 11.9974 10.4464C12.2463 11.2403 12.4389 11.9074 12.4342 11.9262C12.4248 11.945 11.8846 11.5457 11.2317 11.0477C10.5788 10.545 10.0246 10.1363 10.0058 10.1363C9.98228 10.1363 9.42802 10.545 8.77511 11.0477C8.11751 11.5457 7.57734 11.945 7.56794 11.9262C7.56325 11.9074 7.76053 11.2403 8.00478 10.4417C8.25373 9.64306 8.44631 8.96658 8.43692 8.94309C8.42282 8.9149 7.87326 8.478 7.21566 7.97534L6.01319 7.05926L7.53506 7.04517L9.05694 7.03577L9.22134 6.50492C9.31059 6.21835 9.51726 5.55126 9.67696 5.0251C9.84136 4.50364 9.98698 4.07614 10.0011 4.07614C10.0152 4.07614 10.1843 4.57881 10.3768 5.18953Z" fill="#F2C700"/>
</svg>
