<svg width="20" height="20" viewBox="0 0 20 20" fill="none" xmlns="http://www.w3.org/2000/svg">
<circle cx="10" cy="10" r="10" fill="#03ACF8"/>
<g clip-path="url(#clip0_1125_2753)">
<path d="M14.7605 11.1042C14.8344 10.7652 14.873 10.4147 14.873 10.0544C14.873 7.35362 12.6837 5.16407 9.98252 5.16407C9.69758 5.16407 9.41827 5.18891 9.14586 5.23546C8.70916 4.95991 8.19167 4.7998 7.63724 4.7998C6.07059 4.7998 4.80078 6.06982 4.80078 7.63668C4.80078 8.16001 4.94336 8.64994 5.19051 9.07098C5.12538 9.38849 5.09157 9.71768 5.09157 10.0544C5.09157 12.7558 7.28091 14.9453 9.98231 14.9453C10.2885 14.9453 10.5873 14.9172 10.8776 14.8635C11.2772 15.0779 11.7335 15.1998 12.2186 15.1998C13.7851 15.1998 15.0547 13.93 15.0547 12.3636C15.0549 11.911 14.9488 11.4839 14.7605 11.1042ZM12.4908 12.3917C12.265 12.7117 11.9305 12.9656 11.4972 13.1455C11.0682 13.3238 10.5541 13.4144 9.96916 13.4144C9.26672 13.4144 8.67743 13.2906 8.21797 13.0468C7.8892 12.8696 7.61845 12.6295 7.41263 12.332C7.20513 12.0329 7.09992 11.7356 7.09992 11.4486C7.09992 11.2697 7.16839 11.1142 7.30366 10.9871C7.43768 10.861 7.60927 10.7971 7.81426 10.7971C7.9823 10.7971 8.12738 10.8472 8.24511 10.9466C8.35763 11.0424 8.45386 11.1837 8.53172 11.366C8.61856 11.5649 8.71271 11.7325 8.8127 11.8638C8.90893 11.9912 9.0467 12.0978 9.22288 12.1813C9.40032 12.265 9.63954 12.3078 9.93304 12.3078C10.3376 12.3078 10.6693 12.2216 10.9185 12.0513C11.1624 11.8851 11.2801 11.6853 11.2801 11.4411C11.2801 11.248 11.2185 11.0967 11.0918 10.9771C10.958 10.8524 10.7829 10.7562 10.5695 10.6892C10.3474 10.6201 10.0456 10.5449 9.67253 10.4667C9.16443 10.3581 8.73358 10.2291 8.39061 10.0836C8.0395 9.93415 7.75685 9.72708 7.55019 9.46865C7.3404 9.20542 7.23373 8.87643 7.23373 8.48858C7.23373 8.1191 7.34541 7.78573 7.56585 7.49891C7.78441 7.21355 8.104 6.99144 8.51523 6.83989C8.92083 6.6898 9.40366 6.61361 9.95037 6.61361C10.3871 6.61361 10.7707 6.66454 11.0916 6.7637C11.4141 6.8639 11.6857 6.99958 11.8992 7.16637C12.114 7.33462 12.2744 7.51394 12.375 7.70098C12.476 7.88927 12.5274 8.07714 12.5274 8.25854C12.5274 8.43347 12.4601 8.59233 12.3267 8.73114C12.1925 8.87017 12.0239 8.94073 11.8245 8.94073C11.6435 8.94073 11.5016 8.89626 11.4033 8.80984C11.3118 8.72822 11.2168 8.60214 11.1114 8.42074C10.9895 8.18944 10.8419 8.00658 10.6726 7.87778C10.5079 7.75233 10.2332 7.68949 9.8556 7.68949C9.50532 7.68949 9.21996 7.75963 9.00829 7.89887C8.80435 8.03226 8.70498 8.18569 8.70498 8.36751C8.70498 8.47919 8.73713 8.57187 8.8033 8.65203C8.87261 8.73741 8.97093 8.8113 9.0945 8.87372C9.22288 8.93864 9.35586 8.98978 9.48841 9.0261C9.6241 9.0641 9.85205 9.11983 10.1648 9.19206C10.5605 9.27723 10.9248 9.37221 11.2461 9.47533C11.5721 9.5797 11.8531 9.70766 12.0831 9.85734C12.3171 10.0097 12.5027 10.2053 12.6344 10.4395C12.7666 10.6744 12.8334 10.9641 12.8334 11.301C12.8334 11.7031 12.7179 12.0709 12.4908 12.3917Z" fill="white"/>
</g>
<defs>
<clipPath id="clip0_1125_2753">
<rect width="10.4" height="10.4" fill="white" transform="translate(4.80078 4.7998)"/>
</clipPath>
</defs>
</svg>
