<svg width="20" height="20" viewBox="0 0 20 20" fill="none" xmlns="http://www.w3.org/2000/svg">
<circle cx="10" cy="10" r="10" fill="#834995"/>
<g clip-path="url(#clip0_1125_2688)">
<path d="M13.9528 5.81248C13.695 5.57489 12.651 4.81729 10.3235 4.80716C10.3235 4.80716 7.57961 4.64266 6.24321 5.86939C5.49986 6.61269 5.23787 7.70336 5.20943 9.05396C5.18099 10.4046 5.14647 12.9352 7.5857 13.6217H7.58771L7.5857 14.6697C7.5857 14.6697 7.56946 15.0941 7.84972 15.1794C8.18688 15.2851 8.38591 14.9622 8.70883 14.6148C8.88554 14.4239 9.12924 14.1437 9.31406 13.9304C10.9835 14.0705 12.2651 13.7496 12.4113 13.7029C12.7485 13.5933 14.6556 13.3495 14.9643 10.8189C15.2852 8.20704 14.8099 6.55787 13.9528 5.81248Z" fill="white"/>
<path d="M14.2347 10.6279C13.9727 12.74 12.4271 12.8741 12.1428 12.9655C12.021 13.0041 10.8937 13.2844 9.47815 13.193C9.47815 13.193 8.42203 14.4664 8.09301 14.7975C7.98537 14.9051 7.86757 14.895 7.86961 14.6817C7.86961 14.5416 7.87773 12.9412 7.87773 12.9412C7.87569 12.9412 7.87569 12.9412 7.87773 12.9412C5.81016 12.3684 5.93202 10.2135 5.95436 9.0863C5.9767 7.95912 6.18996 7.03501 6.81957 6.41355C7.95084 5.38788 10.2804 5.54022 10.2804 5.54022C12.2484 5.54833 13.1908 6.14136 13.4102 6.34041C14.1352 6.9619 14.5049 8.4486 14.2347 10.6279Z" fill="#834995"/>
<path d="M11.4147 8.98693C11.4228 9.16159 11.1608 9.1738 11.1527 8.9991C11.1303 8.55228 10.9211 8.33499 10.4906 8.31062C10.3159 8.30044 10.3322 8.03845 10.5048 8.04863C11.0715 8.07908 11.3863 8.40404 11.4147 8.98693Z" fill="white"/>
<path d="M11.8243 9.21624C11.8446 8.3551 11.3064 7.68081 10.2848 7.60569C10.1121 7.5935 10.1304 7.33149 10.3031 7.34367C11.4811 7.429 12.1086 8.23936 12.0863 9.22234C12.0842 9.39699 11.8202 9.3889 11.8243 9.21624Z" fill="white"/>
<path d="M12.7785 9.48875C12.7806 9.66342 12.5165 9.66544 12.5165 9.49078C12.5043 7.83553 11.4015 6.93376 10.0631 6.92361C9.89043 6.92158 9.89043 6.66162 10.0631 6.66162C11.5599 6.67177 12.7643 7.70553 12.7785 9.48875Z" fill="white"/>
<path d="M12.5514 11.481V11.4851C12.332 11.871 11.9218 12.2975 11.4993 12.1615L11.4953 12.1553C11.0667 12.0355 10.0573 11.5156 9.4196 11.0078C9.09057 10.7478 8.78997 10.4412 8.55843 10.1467C8.34926 9.88467 8.13805 9.57391 7.93292 9.20023C7.50032 8.41829 7.40487 8.06896 7.40487 8.06896C7.26879 7.64652 7.69327 7.23624 8.08116 7.01692H8.08526C8.27209 6.9194 8.45081 6.95192 8.57064 7.09609C8.57064 7.09609 8.8225 7.39665 8.93012 7.54496C9.03168 7.68306 9.16776 7.90442 9.23884 8.02831C9.36274 8.24968 9.28553 8.47513 9.16369 8.56853L8.91997 8.76353C8.79609 8.86303 8.81233 9.04785 8.81233 9.04785C8.81233 9.04785 9.17384 10.4147 10.5245 10.76C10.5245 10.76 10.7093 10.7763 10.8088 10.6524L11.0038 10.4086C11.0972 10.2868 11.3227 10.2096 11.544 10.3335C11.8426 10.5021 12.2224 10.7641 12.4742 11.0017C12.6164 11.1175 12.6489 11.2942 12.5514 11.481Z" fill="white"/>
</g>
<defs>
<clipPath id="clip0_1125_2688">
<rect width="10.4" height="10.4" fill="white" transform="translate(4.80078 4.7998)"/>
</clipPath>
</defs>
</svg>
