<svg width="20" height="20" viewBox="0 0 20 20" fill="none" xmlns="http://www.w3.org/2000/svg">
<path d="M8.55513 0.199219C8.45747 0.21875 8.29731 0.273438 8.19966 0.324219C8.04731 0.40625 3.12153 3.98438 2.96919 4.125C2.92231 4.17188 3.08247 4.17969 4.02778 4.17969H5.14106L6.98091 2.83203C8.28169 1.87891 8.852 1.48438 8.92231 1.48438C8.977 1.48438 9.05513 1.51562 9.09419 1.55469C9.12934 1.58984 9.58247 2.19922 10.0981 2.90234L11.0317 4.17969H11.8442C12.2895 4.17969 12.6567 4.17188 12.6567 4.16016C12.6567 4.10156 10.1293 0.699219 9.99653 0.578125C9.62544 0.238281 9.08247 0.0976562 8.55513 0.199219Z" fill="#F2C700"/>
<path d="M13.129 0.195312C12.883 0.25 12.6369 0.386719 12.1251 0.765625C11.8361 0.980469 11.6876 1.11328 11.7033 1.14453C11.7931 1.29688 12.4337 2.14844 12.4611 2.14844C12.4806 2.14844 12.633 2.04297 12.8048 1.91797C12.9767 1.79297 13.1876 1.64062 13.2736 1.58203C13.5744 1.38281 13.5392 1.35156 14.629 2.83984L15.6056 4.17969H16.4181C16.8634 4.17969 17.2267 4.16797 17.2267 4.15625C17.2267 4.14453 16.6525 3.35156 15.9533 2.39844C14.5978 0.550781 14.4962 0.433594 14.0744 0.273438C13.8165 0.175781 13.3869 0.140625 13.129 0.195312Z" fill="#F2C700"/>
<path d="M0.839844 5.55857C0.488281 5.69919 0.214844 5.96091 0.09375 6.27341C0.0234375 6.45701 0.0195312 6.66013 0.0195312 12.6953V18.7282C0.0195312 18.8584 0.0475067 18.987 0.101562 19.1054C0.222656 19.3672 0.441406 19.5898 0.695312 19.7148C0.841811 19.7868 1.00282 19.8243 1.16604 19.8245L9.21875 19.8359C15.4727 19.8437 17.5742 19.8359 17.7344 19.8008C18.125 19.7187 18.4375 19.4492 18.6211 19.0429C18.6836 18.9023 18.6914 18.7226 18.7031 17.2539L18.7148 15.625H16.0742C13.8242 15.625 13.3906 15.6172 13.1328 15.5625C12.5156 15.4375 12.0742 15.1992 11.6211 14.7461C10.9961 14.1211 10.7031 13.3554 10.7539 12.5C10.8008 11.7539 11.0781 11.1484 11.6211 10.6054C12.0195 10.207 12.2734 10.0429 12.7617 9.86716L13.1055 9.74607L15.8984 9.72654L18.6914 9.70701V8.08591V6.73573C18.6914 6.55724 18.6528 6.38087 18.5781 6.21873C18.457 5.95701 18.2695 5.76169 18 5.61716C17.8897 5.55818 17.7666 5.52726 17.6415 5.52714L9.39453 5.51951C2.98438 5.5156 0.929688 5.52341 0.839844 5.55857Z" fill="#F2C700"/>
<path d="M13.2973 10.7617C12.7856 10.8711 12.2075 11.2969 11.9926 11.7187C11.7426 12.2109 11.684 12.7617 11.8364 13.2461C12.0239 13.8516 12.5278 14.3477 13.1372 14.5352C13.3676 14.6055 13.5512 14.6094 16.4692 14.6094H19.5591L19.688 14.5195C19.7583 14.4727 19.8559 14.3828 19.8989 14.3242C19.977 14.2187 19.9809 14.1641 19.9927 12.7812C20.0005 11.9922 19.9927 11.2891 19.9809 11.2187C19.9497 11.043 19.7153 10.793 19.5395 10.7422C19.3091 10.6797 13.5981 10.6953 13.2973 10.7617Z" fill="#F2C700"/>
</svg>
