<svg width="20" height="20" viewBox="0 0 20 20" fill="none" xmlns="http://www.w3.org/2000/svg">
<circle cx="10" cy="10" r="10" fill="#2CB742"/>
<g clip-path="url(#clip0_1125_2741)">
<path fill-rule="evenodd" clip-rule="evenodd" d="M13.643 6.31116C12.6701 5.33705 11.3761 4.80037 9.99753 4.7998C7.157 4.7998 4.84511 7.11151 4.844 9.95291C4.8436 10.8612 5.08091 11.7478 5.53191 12.5293L4.80078 15.1998L7.53273 14.4832C8.28545 14.8937 9.13296 15.1101 9.99548 15.1104H9.99757C9.99774 15.1104 9.99744 15.1104 9.99761 15.1104C12.8378 15.1104 15.1499 12.7985 15.1511 9.95704C15.1516 8.58 14.616 7.28522 13.643 6.31116ZM9.99755 14.2401H9.99581C9.22724 14.2398 8.47337 14.0333 7.81571 13.643L7.65932 13.5502L6.03814 13.9755L6.47087 12.3948L6.36902 12.2328C5.94025 11.5508 5.7138 10.7626 5.71414 9.95321C5.71506 7.59155 7.63662 5.67019 9.99929 5.67019C11.1434 5.67055 12.2188 6.11669 13.0276 6.92633C13.8363 7.73597 14.2814 8.81217 14.2809 9.95668C14.28 12.3185 12.3585 14.2401 9.99755 14.2401Z" fill="white"/>
<path fill-rule="evenodd" clip-rule="evenodd" d="M12.347 11.0322C12.2183 10.9678 11.5852 10.6563 11.4672 10.6133C11.3491 10.5703 11.2633 10.5489 11.1775 10.6778C11.0916 10.8067 10.8448 11.0967 10.7697 11.1827C10.6946 11.2686 10.6195 11.2794 10.4907 11.2149C10.362 11.1504 9.94706 11.0145 9.45523 10.5758C9.07241 10.2343 8.81399 9.81265 8.73885 9.68371C8.66375 9.55482 8.73086 9.48514 8.79533 9.42092C8.85326 9.3632 8.92411 9.27053 8.9885 9.19532C9.05287 9.12016 9.07433 9.0664 9.11726 8.98052C9.16018 8.89457 9.13874 8.81936 9.10653 8.75493C9.07433 8.69048 8.81681 8.05667 8.70952 7.79879C8.60496 7.54774 8.49882 7.58176 8.41977 7.57776C8.34477 7.57402 8.25881 7.57324 8.17298 7.57324C8.08715 7.57324 7.94762 7.60548 7.82961 7.73436C7.71159 7.86329 7.37891 8.17484 7.37891 8.80859C7.37891 9.44242 7.84032 10.0547 7.90471 10.1406C7.96908 10.2266 8.81271 11.5272 10.1044 12.085C10.4117 12.2177 10.6515 12.2969 10.8385 12.3562C11.147 12.4543 11.4277 12.4404 11.6496 12.4072C11.897 12.3703 12.4114 12.0958 12.5187 11.795C12.626 11.4942 12.626 11.2363 12.5938 11.1827C12.5617 11.129 12.4758 11.0967 12.347 11.0322Z" fill="white"/>
</g>
<defs>
<clipPath id="clip0_1125_2741">
<rect width="10.4" height="10.4" fill="white" transform="translate(4.80078 4.7998)"/>
</clipPath>
</defs>
</svg>
